<svg xmlns="http://www.w3.org/2000/svg" viewBox="0 0 932.89 245.96"><defs><style>.cls-1{fill:#02d5c9;}</style></defs><g id="Layer_2" data-name="Layer 2"><g id="Layer_1-2" data-name="Layer 1"><path id="W" class="cls-1" d="M18.57,10c-14.91,2-23,18.24-16,31.58C7,50.1,9.19,62.13,7,82,2.7,120.46,2.1,190.09,2,208.94a21.11,21.11,0,0,0,2.4,10C11,231.37,30.54,259.17,69.11,238.6c37.28-19.88,34.8-29.82,34.8-29.82s24.16,60.77,74.56,22.37c52.2-39.77,101.91-91.84,101.91-191.38,0-24-24.76-29.07-40.18-29.92a21.45,21.45,0,0,0-18.85,9.47c-8.31,12.22-20.64,33.41-15.54,45.3,7.46,17.4,34.8,12.43,34.8,22.37s4.71,41.56-49.71,106.88c-12.43,14.91-32.31,2.48-27.34-22.37S195.75,37.13,176,12.43C166,0,113.85,14.91,111.36,19.88s19.7,96.17-7.45,164c-5,12.43-37.28,27.34-39.77,0S84,24.85,66.63,12.43C58.22,6.42,37.61,7.38,18.57,10Z"/><path class="cls-1" d="M402.16,106.87C387.25,87,345,92,345,92c-79.54,9.94-94.73,116.68-49.71,139.19,5,2.48,32.31,19.88,72.08-5S417.08,126.76,402.16,106.87ZM348.22,210.68c-31.26-10.45-16.39-64.34-5.71-93.86,0,0,9.94,0,9.94,5,0,42.25,34.8,39.76,34.8,39.76C382.28,191.38,357.42,213.75,348.22,210.68Z"/><path id="r" class="cls-1" d="M428.55,101.9a3.79,3.79,0,0,0-3.39,5.49c5.17,10.26,11.52,28.5,7.42,41.61-5,15.91-14.29,63.2-12.41,87.58,21.76-.46,51.22.47,60.1,0,0,0-5.45-47.78,7.59-90.83a5.92,5.92,0,0,1,5.79-4.2c6.47.1,17.18,1.51,12.9,10.06-2.48,5,32.19,7.83,42.25-22.37,2.49-7.45-7-36-34.37-27.34,0,0-14.11,2.52-22.79,19.89-1.83,3.65-2.31-8.78-2.44-15.64a4.33,4.33,0,0,0-4.33-4.25Z"/><path class="cls-1" d="M708.21,227.2a3.26,3.26,0,0,1-1.64,2.18c-9,4.87-62.2,31.81-77.4-.72-5.8-12.43-10.78-39.77-10.78-67.11,0,0,24.86-5,29.83-17.39s0-19.89-14.91-14.92-19,7.85-19,7.85c-5.26,30.21-12.35,88-13.81,100a2.5,2.5,0,0,1-2.53,2.2c-8.12-.14-36.24-.58-53.39-.06a2.51,2.51,0,0,1-2.57-2.77c5.91-53.78,29.22-130.14,34.1-157.89,4.18-23.76,3.09-49.1,1.16-61a5.94,5.94,0,0,1,4.35-6.69C594.07,7.64,624.1,0,635.79,0c2.25,13.47-10.5,93.44-15.93,114.66l3.51-.33c19.88-17.4,84.5-27.34,87,9.94s-42.14,44.23-42.14,44.23l12.31,40.28s.27,11.57,26.28,2.18C711.84,209.14,709.22,222.66,708.21,227.2Z"/><path id="I" class="cls-1" d="M736,105.42A4.84,4.84,0,0,0,732.8,113a35,35,0,0,1,4.9,28.72c-5,19.88-12.43,54.68-14.91,69.59s8,36.61,28.87,33.22,50.66-13.33,53.15-18.3,2.48-15.18,0-15.05-14.92,10.08-19.89.13,6.44-54.12,12.43-72.07c2.49-7.46,7.46-32.32-5-37.29C783,98.16,751.15,102.87,736,105.42Z"/><path class="cls-1" d="M931.56,124.27s-2.48-2.48,1.33-22.37c-6.16.59-15.34.9-25.75,1,1-4.85,1.73-8.66,2.06-11a316.73,316.73,0,0,0,2.43-35.34,4.78,4.78,0,0,0-4.41-4.87c-10-.82-34.89-1.8-54.16,6.29a4.82,4.82,0,0,0-2.93,5.14,211.48,211.48,0,0,1,1.64,39.34c-14.33-.3-24.59-.62-24.59-.62h-2.55c-5.58,0-2.43,27.34,2.55,23.74,1.41-1,10.43-1.58,22.63-1.84a222.85,222.85,0,0,1-10.21,42.73c-19.88,57.16,0,71.12,0,71.12s5.16,8.34,37.63,6.83c16.55-.77,33.35-15.15,38.1-19.53A2.66,2.66,0,0,0,916,222l-3.24-8.1a2.64,2.64,0,0,0-3.52-1.44c-4.45,2-14.15,5.39-22.4,1.26-3.54-1.77,8-53.79,15.86-90C919.06,124,931.56,124.27,931.56,124.27Z"/><circle class="cls-1" cx="774.98" cy="49.71" r="29.83"/></g></g></svg>